<svg xmlns="http://www.w3.org/2000/svg" width="44" height="44" viewBox="0 0 44 44"><defs><style>.a{fill:#fff;}.b{fill:#009e7e;}</style></defs><g transform="translate(-7789 9611)"><circle class="a" cx="22" cy="22" r="22" transform="translate(7789 -9611)"/><path class="b" d="M5659.188-9626.924a18.937,18.937,0,0,1,1.155-3.57,10.6,10.6,0,0,1,2.463-3.935c1.411-1.524,2.481-1.769,4.367-2.229a9.035,9.035,0,0,1,6.877,1.587c2.055,1.535,2.047,4.4.874,6.353a6.156,6.156,0,0,1-2.944,2.183,11.473,11.473,0,0,1-2.477.657s.426-2.13.591-2.84.495-2.071.644-2.811-.405-1.3-1.3-1.434a2.6,2.6,0,0,0-2.175.468,4.491,4.491,0,0,0-1.638,2.864,16.877,16.877,0,0,0-.4,3.932s-1.056-.384-1.452-.518-.854-.476-1.152-.588-.452-.17-.668-.073-.3.229-.405.523a4.182,4.182,0,0,0-.078,1.015,5.926,5.926,0,0,0,.078.79c.064.328.092.355.405.644a7.375,7.375,0,0,0,1.079.7l2.424,1.094s.038.782,0,2.038a26,26,0,0,1-.209,3.012,16.033,16.033,0,0,1-.516,2.932c-.362,1.514-.471,1.819-.676,2.737a1.93,1.93,0,0,0-.032,1.272,1.178,1.178,0,0,0,.305.417,1.326,1.326,0,0,0,.661.283,2.819,2.819,0,0,0,1.288-.088,1.906,1.906,0,0,0,1.079-.685,4.736,4.736,0,0,0,.781-1.321,19.316,19.316,0,0,0,1.243-6.8c.109-2.531.12-3.8.12-3.8s6.009-.3,8.73-5.022a8.471,8.471,0,0,0-2.272-11.541c-3.229-2.332-7.773-2.225-9.926-1.687a10.165,10.165,0,0,0-6.658,4.531c-1.861,2.992-.834,6.944-.834,6.944Z" transform="translate(2144.595 35.118)"/><g transform="translate(7795.364 -9600.249)"><path class="b" d="M10.963,27.742a4.872,4.872,0,0,1-.785-.074,3.017,3.017,0,0,1-.833-.273,4.2,4.2,0,0,1-.852-.564,5.817,5.817,0,0,1-.829-.87A7.979,7.979,0,0,1,6.9,24.768,7.96,7.96,0,0,0,5.341,23.1h0c-.144-.123-.307-.263-.5-.435a6.509,6.509,0,0,0-.991-.717l-.192-.12a5.949,5.949,0,0,1-.668-.481,6.009,6.009,0,0,1-.763-.776,7.718,7.718,0,0,1-.805-1.307,9.349,9.349,0,0,1-.588-1.456s-.106-.3-.233-.782a14.423,14.423,0,0,1-.368-1.949c-.038-.33-.074-.6-.105-.834h0A9.743,9.743,0,0,1,.06,11.582,12.317,12.317,0,0,1,.317,9.666,16.545,16.545,0,0,1,.946,7.778a8.54,8.54,0,0,1,.611-1.287l0,0,.068-.123a8.62,8.62,0,0,1,.616-.956c.109-.155.245-.347.419-.6.457-.662.725-.994,1.008-1.347l.008-.01c.291-.361.623-.766,1.2-1.388A27.636,27.636,0,0,1,7.048,0c0,.007-.181.757-.274,1.478a14.53,14.53,0,0,0-.1,1.453A19.932,19.932,0,0,0,6.9,5.56c.045.281.077.5.1.679a9.064,9.064,0,0,0,.538,2.1,12.807,12.807,0,0,0,.755,1.78,10.836,10.836,0,0,1,.691,1.643,10.463,10.463,0,0,1,.4,1.718,6.064,6.064,0,0,1,.062.673s.027.24.04.586a8.712,8.712,0,0,1-.04,1.283A6.909,6.909,0,0,1,9.16,17.29c-.108.338-.2.563-.2.566a12.031,12.031,0,0,0-.644,1.71l-.016.055a7.569,7.569,0,0,0-.357,1.839,6.073,6.073,0,0,0,.084,1.92l.022.138a2.756,2.756,0,0,0,.377.963,3.088,3.088,0,0,0,.286.4A3.743,3.743,0,0,0,9,25.221a3.274,3.274,0,0,0,.722.588,3.226,3.226,0,0,0,1.295.4c.042,0,.086,0,.13,0a3.137,3.137,0,0,0,1.06-.208,2.715,2.715,0,0,0,.793-.475,1.287,1.287,0,0,0,.408.555,1.906,1.906,0,0,0,.733.262l0,0c-.049.039-.229.181-.489.357a6.961,6.961,0,0,1-1.125.627,7.08,7.08,0,0,1-.793.3A2.651,2.651,0,0,1,10.963,27.742Zm-9.5-11.763.118.719,0,0c.128.121.775.733,1,.949.188.182.681.563,1.041.842l.3.236c.325.257,1.162.738,1.171.743L5.48,20.63a12.432,12.432,0,0,0,.756,1.778,5.315,5.315,0,0,0,.6.833l.089-.757a3.462,3.462,0,0,1-.319-.448,16.367,16.367,0,0,1-.719-1.573L5.859,20.4c-.15-.383-.186-.474-.342-.974-.042-.135-.08-.248-.113-.347a2.31,2.31,0,0,1-.16-.681,9.378,9.378,0,0,1,.7-1.865A13.483,13.483,0,0,1,6.9,14.847c.069-.107.133-.208.194-.306.384-.573.881-1.238.886-1.245l-.031-.638c-.008.011-.921,1.252-1.233,1.716a21.26,21.26,0,0,0-1.09,1.9,14.81,14.81,0,0,0-.582,1.536l0-.023c-.089-.415-.181-.86-.261-1.253-.031-.151-.062-.3-.093-.449-.087-.418-.178-.85-.26-1.335-.082-.511-.123-.816-.163-1.111-.017-.129-.034-.251-.054-.388a4.146,4.146,0,0,1,.607-1.567c.055-.1.1-.18.135-.25a8.628,8.628,0,0,1,.527-.871c.411-.623,1-1.392,1-1.4V8.6l-.809,1.12-.35.484a14,14,0,0,0-.737,1.21l-.118.209a5.642,5.642,0,0,0-.384.929s0-.039,0-.1c-.047-1.084-.077-1.79-.088-2.1a16.423,16.423,0,0,1,.118-1.84c.01-.09.018-.174.026-.255a9.005,9.005,0,0,1,.184-1.188,11.945,11.945,0,0,1,.533-1.858c.315-.909.739-1.812.743-1.821L5.4,2.754c0,.011-.512,1.185-.886,2.273a15.429,15.429,0,0,0-.588,1.957A15.468,15.468,0,0,0,3.684,9.22v0c-.043-.061-.273-.388-.556-.865-.307-.519-.69-1.238-.694-1.245l-.124.365a11.129,11.129,0,0,0,.644,1.264c.351.574.7,1.054.7,1.059s-.014.216,0,.83.03.864.087,1.6c.055.709.135,1.27.136,1.276h0a10.67,10.67,0,0,1-1.108-.916c-.669-.619-1.6-1.582-1.6-1.592v.489c.006.007.639.711,1.326,1.344S3.93,14.034,3.938,14.04s.059.525.167,1.121c.1.558.147.783.285,1.431.092.434.136.616.186.826h0c.027.112.055.228.092.393.108.471.3,1.145.3,1.152h0c-.054-.032-.34-.205-.654-.432-.007-.005-.747-.542-1.449-1.177S1.473,15.986,1.466,15.978Z" transform="translate(0 0)"/></g></g></svg>