<?xml version="1.0" standalone="no"?>
<!DOCTYPE svg PUBLIC "-//W3C//DTD SVG 20010904//EN"
 "http://www.w3.org/TR/2001/REC-SVG-20010904/DTD/svg10.dtd">
<svg version="1.0" xmlns="http://www.w3.org/2000/svg"
 width="700.000000pt" height="700.000000pt" viewBox="0 0 700.000000 700.000000"
 preserveAspectRatio="xMidYMid meet">
<metadata>
Created by potrace 1.11, written by Peter Selinger 2001-2013
</metadata>
<g transform="translate(0.000000,700.000000) scale(0.100000,-0.100000)"
fill="#000000" stroke="none">
<path d="M3742 6129 c-152 -11 -389 -58 -525 -105 -236 -82 -465 -230 -639
-413 -238 -250 -338 -473 -368 -818 -12 -133 -1 -323 25 -458 14 -76 100 -352
114 -367 4 -5 15 27 25 70 39 170 161 503 248 677 117 232 330 484 513 604
184 121 572 215 810 196 278 -22 521 -103 729 -245 192 -131 291 -305 303
-537 13 -231 -58 -440 -199 -589 -133 -139 -245 -208 -461 -283 -88 -30 -289
-81 -320 -81 -7 0 72 374 137 656 59 253 65 307 41 353 -32 63 -98 101 -214
121 -89 16 -176 3 -263 -41 -104 -53 -221 -189 -275 -322 -47 -116 -97 -415
-109 -653 l-7 -140 -121 43 c-67 23 -165 66 -220 94 -133 70 -189 69 -227 -3
-31 -59 -27 -304 6 -369 17 -31 111 -106 180 -142 22 -12 126 -60 230 -108
l190 -86 -1 -284 c-1 -218 -7 -330 -23 -484 -28 -255 -36 -295 -132 -680 -51
-208 -79 -340 -79 -375 1 -99 44 -161 134 -190 51 -16 204 -8 271 16 71 24
168 125 222 229 78 151 163 457 204 730 18 123 48 698 49 937 l0 97 48 6 c658
85 1133 391 1406 905 98 185 149 398 149 620 -1 368 -134 692 -393 950 -118
118 -235 202 -390 280 -291 146 -688 216 -1068 189z"/>
<path d="M2019 5187 c-247 -222 -458 -474 -693 -822 -115 -171 -246 -500 -280
-705 -23 -144 -39 -374 -32 -465 42 -499 138 -851 302 -1102 75 -116 156 -194
298 -287 189 -124 412 -329 484 -442 105 -169 135 -209 221 -294 142 -141 253
-190 432 -190 60 0 100 7 157 26 91 30 226 99 300 153 l53 38 -47 13 c-45 13
-115 68 -126 100 -5 13 -9 13 -34 -3 -216 -136 -440 -107 -613 79 -89 96 -135
186 -156 308 -36 213 -3 457 97 715 131 338 143 395 135 641 -8 277 -50 441
-181 719 -134 284 -182 437 -221 707 -47 320 -48 573 -5 796 11 56 18 103 16
105 -2 2 -50 -38 -107 -90z m-129 -391 c12 -44 11 -49 -34 -154 -168 -399
-224 -732 -199 -1204 l6 -126 53 106 c60 122 99 184 228 365 l91 128 3 -40 c3
-36 -5 -51 -78 -155 -144 -203 -237 -373 -264 -477 -13 -50 -12 -69 5 -189 17
-113 106 -570 113 -577 1 -2 22 48 46 110 67 174 160 337 329 572 l86 119 3
-51 c3 -49 0 -56 -54 -129 -184 -249 -374 -626 -374 -743 0 -74 149 -459 225
-583 35 -56 44 -107 26 -152 -6 -17 -14 -10 -54 46 -58 80 -120 219 -178 396
l-44 134 -75 44 c-96 58 -270 194 -392 309 -94 88 -96 91 -103 145 l-7 55 128
-126 c151 -146 405 -352 419 -337 2 2 -14 75 -36 163 -45 181 -92 411 -109
530 l-12 81 -81 64 c-44 36 -143 126 -219 200 -131 128 -138 137 -138 174 l0
38 153 -148 c143 -139 263 -242 271 -233 2 2 0 31 -4 64 -5 33 -14 164 -20
290 l-13 230 -58 91 c-93 146 -151 266 -143 298 3 14 9 26 13 26 3 0 24 -33
45 -73 22 -39 65 -112 95 -162 52 -83 56 -88 59 -60 32 351 54 434 250 943 9
23 19 42 23 42 3 0 12 -20 19 -44z"/>
</g>
</svg>
