<?xml version="1.0" encoding="UTF-8" standalone="no"?><!DOCTYPE svg PUBLIC "-//W3C//DTD SVG 1.1//EN" "http://www.w3.org/Graphics/SVG/1.1/DTD/svg11.dtd">
<svg xmlns="http://www.w3.org/2000/svg" xmlns:xlink="http://www.w3.org/1999/xlink" viewBox="0 0 256.334 110.957" id="logo">
    <path class="a"
          d="M-1316.008-444.635a14.19,14.19,0,0,1-6.361-1.347,13.21,13.21,0,0,1-4.543-3.625,15.647,15.647,0,0,1-2.726-5.27,21.492,21.492,0,0,1-.909-6.28,19.931,19.931,0,0,1,.813-5.129q.813-2.977,1.684-5.283a24.531,24.531,0,0,1,2.187-4.4,17.519,17.519,0,0,1,3.078-3.688,14.222,14.222,0,0,1,3.949-2.536,12.17,12.17,0,0,1,4.859-.941,11.477,11.477,0,0,1,4.053.7,9.922,9.922,0,0,1,3.254,1.963,8.885,8.885,0,0,1,2.163,3.052,9.921,9.921,0,0,1,.779,4,11.366,11.366,0,0,1-1.58,5.291,21.2,21.2,0,0,1-3.686,5.024,23.222,23.222,0,0,1-5.013,3.73,27.167,27.167,0,0,1-6.3,2.55,12.146,12.146,0,0,0,1.152,1.713,5.2,5.2,0,0,0,1.153,1.066,3.9,3.9,0,0,0,1.231.533,6.018,6.018,0,0,0,1.387.152,14.8,14.8,0,0,0,4.924-.914,32.476,32.476,0,0,0,5.041-2.284,42.77,42.77,0,0,0,4.632-2.988,39.562,39.562,0,0,0,3.7-3.064l5.021,5.1a51.863,51.863,0,0,1-7.279,6.454q-1.674,1.2-3.6,2.366a32.22,32.22,0,0,1-4.048,2.064,27.455,27.455,0,0,1-4.4,1.443A19.888,19.888,0,0,1-1316.008-444.635Zm-5.2-18.539a7.914,7.914,0,0,0,3.067-.7,13.866,13.866,0,0,0,3.087-1.808,14.738,14.738,0,0,0,2.794-2.969,5.724,5.724,0,0,0,1.368-3.083,5.526,5.526,0,0,0-.645-2.817,1.854,1.854,0,0,0-1.583-1.1,6.246,6.246,0,0,0-2.872.609,6.212,6.212,0,0,0-1.993,1.58,8.129,8.129,0,0,0-1.289,2.207q-.489,1.237-1.133,3.064a11.835,11.835,0,0,0-.723,3.007Q-1321.2-464.012-1321.2-463.174Zm21.487,10.4q0-1.713.195-3.99t.526-4.807q.331-2.53.778-5.158t1.148-5.605q.7-2.978,1.207-4.963a28.055,28.055,0,0,1,1.012-3.27,7.632,7.632,0,0,1,.623-1.362,2.7,2.7,0,0,1,.72-.8,2.363,2.363,0,0,1,1.012-.389,9.644,9.644,0,0,1,1.5-.1,9.822,9.822,0,0,1,1.577.1,1.251,1.251,0,0,1,.837.467,2.092,2.092,0,0,1,.331,1.07q.058.7.058,1.907,0,1.44-.195,4.087a41.768,41.768,0,0,0-.117,4.632h.428q.779-1.557,1.946-4.087a22.211,22.211,0,0,1,2.452-4.2,13.345,13.345,0,0,1,2.92-2.822,6.4,6.4,0,0,1,3.776-1.148,4.209,4.209,0,0,1,1.44.253,3.733,3.733,0,0,1,1.226.72,3.412,3.412,0,0,1,.837,1.148,3.659,3.659,0,0,1,.311,1.538,12.24,12.24,0,0,1-.195,1.849q-.195,1.187-.623,3.095t-.623,3.133a13.468,13.468,0,0,0-.195,2.044,8.481,8.481,0,0,0,.273,2.336,4.362,4.362,0,0,0,.72,1.5,2.537,2.537,0,0,0,1.012.8,3.074,3.074,0,0,0,1.187.234,9.386,9.386,0,0,0,3.62-.779c.441-.184.869-.376,1.324-.6,0,0-.948,2.4-1.7,4.937-.18.694-.345,1.417-.458,2.118a16.957,16.957,0,0,0-.216,2.351c-.161.055-.393.137-.6.2a10.831,10.831,0,0,1-3.211.487,8.39,8.39,0,0,1-4.71-1.187,8.636,8.636,0,0,1-2.842-3.114,15.793,15.793,0,0,1-1.557-4.321q-.506-2.394-.817-4.846h-.623l-6.968,19.424a25.143,25.143,0,0,1-1.031,2.511,8.526,8.526,0,0,1-.993,1.615,2.932,2.932,0,0,1-1.09.876,3.2,3.2,0,0,1-1.285.253,4.394,4.394,0,0,1-2.569-.681,4.434,4.434,0,0,1-1.5-1.83,8.74,8.74,0,0,1-.7-2.608A25.327,25.327,0,0,1-1299.718-452.77Zm41.678,44.258a12.7,12.7,0,0,0,4.515-.778,12.046,12.046,0,0,0,3.542-2.023,13.97,13.97,0,0,0,2.666-3.054,21.307,21.307,0,0,0,1.927-3.618,31.671,31.671,0,0,0,1.3-3.969,30.934,30.934,0,0,0,.782-3.873q.217-1.714.443-3.486.095-.784.284-2.234.467-5.024.856-6.855a3.841,3.841,0,0,1,1.44-2.532q1.674-1.129,5.411-3.545.195-.116.545-.348s4.555-3.365,6.423-5.218l-1.171-3.186-1.322-3.642c-.856.647-9.912,8.178-10.665,8.618q.584-6.094.856-9.9a34.741,34.741,0,0,1,1.148-6.918,25.1,25.1,0,0,0,.993-5.224q.35-6.8-.117-8.01a9.989,9.989,0,0,0-.506-1.133,2.621,2.621,0,0,0-2.413-1.055l-1.715.039q-.511,0-.9-.039a2.754,2.754,0,0,1-.7-.157q-.311-.118-.506-.177a1.092,1.092,0,0,1-.428-.295q-.233-.236-.331-.315a2.438,2.438,0,0,1-.331-.413,3.888,3.888,0,0,0-.35-.453,3.605,3.605,0,0,0-2.958-1.14q-4.476,0-9.225,4.243a24.046,24.046,0,0,0-5.333,6.87,69.537,69.537,0,0,0-4.087,10.023q-2.219,6.5.117,11.366a11.666,11.666,0,0,0,3.834,4.554,9.375,9.375,0,0,0,5.586,1.829q4.126,0,8.486-4.122l-.779,4.628q-2.452,2.141-4.223,3.99t-4.5,4.924a32.537,32.537,0,0,0-2.589,3.328q-1.265,1.849-1.83,2.861t-2.044,3.581a15.385,15.385,0,0,0-2.258,8.68,9.854,9.854,0,0,0,1.07,3.815,6.745,6.745,0,0,0,2.3,2.55,10.861,10.861,0,0,0,3.095,1.362A14.135,14.135,0,0,0-1258.04-408.512Zm-1.04-52.627q.35-2.3,4.048-8.758,3.426-6.072,7.941-6.072l-2.919,12.962a20.235,20.235,0,0,1-1.518,6.734q-1.752,4.243-4.4,4.243a2.778,2.778,0,0,1-2.452-1.635Q-1259.819-456.2-1259.08-461.139Zm8.431,26.472q-.066.539-.308,2.522l-.407,3.33a14.124,14.124,0,0,1-.515,2.476q-.584,2.1-1.012,3.367t-.954,2.589a11.286,11.286,0,0,1-.993,2.024,7.952,7.952,0,0,1-1.09,1.3,3.468,3.468,0,0,1-1.343.837,5.361,5.361,0,0,1-1.654.234q-2.608,0-1.324-3.7a45.267,45.267,0,0,1,4.2-8.738A21.064,21.064,0,0,1-1250.649-434.668Zm46.142-39.979a20.85,20.85,0,0,1,1.693,4.768,25.917,25.917,0,0,1,.564,5.664,21.821,21.821,0,0,1-.506,4.632,23.819,23.819,0,0,1-1.46,4.515,21.929,21.929,0,0,1-2.336,4.087,16.632,16.632,0,0,1-3.153,3.309,14.926,14.926,0,0,1-3.873,2.219,12.242,12.242,0,0,1-4.476.817,10.956,10.956,0,0,1-5.858-1.5,10.543,10.543,0,0,1-3.99-3.912l-2.493-6.828a24.068,24.068,0,0,1-.5-4.772,27.2,27.2,0,0,1,1.284-8.856,19.3,19.3,0,0,1,3.678-6.462,17.014,17.014,0,0,1,5.858-4.321,18.588,18.588,0,0,1,7.785-1.577,20.539,20.539,0,0,1,6.929,1.148,26.326,26.326,0,0,1,6.053,3.075,25.824,25.824,0,0,1,5.255,4.846q2.433,2.919,4.535,5.566l-.74,5.488a22.623,22.623,0,0,0-2.842-3.036q-1.791-1.635-3.8-3.62a31.962,31.962,0,0,0-3.951-3.367q-1.946-1.382-3.348-2.316Zm-12.028,22.538a3.551,3.551,0,0,0,2.569-1.343,12.7,12.7,0,0,0,2.18-3.387,22.126,22.126,0,0,0,1.5-4.944,27.343,27.343,0,0,0,.564-5.158,19.1,19.1,0,0,0-.272-3.328,10.238,10.238,0,0,0-.818-2.666,4.908,4.908,0,0,0-1.4-1.791,3.273,3.273,0,0,0-2.063-.662,4.386,4.386,0,0,0-3.036,1.362,12.77,12.77,0,0,0-2.53,3.484,21.108,21.108,0,0,0-1.713,4.69,24.693,24.693,0,0,0-.623,5.8,14.528,14.528,0,0,0,.311,3.075,7.919,7.919,0,0,0,.973,2.511,5.031,5.031,0,0,0,1.752,1.713A5.048,5.048,0,0,0-1216.534-452.109Zm30.325,7.474a5.425,5.425,0,0,1-3.9-1.82,15.894,15.894,0,0,1-3.141-4.885,32.935,32.935,0,0,1-2.094-7.107,46.086,46.086,0,0,1-.756-8.486,62.006,62.006,0,0,1,1.123-10.2l1.122-6.377,1.7-6.37a71,71,0,0,1,3.411-10.218,66.384,66.384,0,0,1,3.715-7.191,38.991,38.991,0,0,1,4.207-5.827,19.464,19.464,0,0,1,4.6-3.9,9.473,9.473,0,0,1,4.875-1.42,5.817,5.817,0,0,1,2.976.688,5.108,5.108,0,0,1,1.844,1.817,7.834,7.834,0,0,1,.943,2.557,15.5,15.5,0,0,1,.272,2.91,33.651,33.651,0,0,1-.87,7.5,56.589,56.589,0,0,1-2.347,7.672q-1.477,3.855-3.42,7.731t-4.047,7.692q-2.1,3.817-4.229,7.515t-3.921,7.232a8.541,8.541,0,0,0-.41,1.021q-.215.628-.41,1.354t-.391,1.55q-.2.824-.313,1.609v.55a9.073,9.073,0,0,0,.215,1.982,10.82,10.82,0,0,0,.527,1.727,5.2,5.2,0,0,0,.664,1.217q.351.451.664.451a5.748,5.748,0,0,0,1.734-.314,16.182,16.182,0,0,0,2.073-.844q1.1-.53,2.252-1.217t2.232-1.394q2.511-1.648,5.261-3.807l3.437,8.2q-3.568,2.369-7.055,4.219-1.523.777-3.147,1.536t-3.267,1.351a26.826,26.826,0,0,1-3.207.944A13.374,13.374,0,0,1-1186.21-444.635Zm.037-30.856q1.757-3.14,3.729-7.066t3.729-8.086q1.758-4.161,3.046-8.3a38.97,38.97,0,0,0,1.64-7.713q0-1.139-.055-1.943t-.35-.8a3.3,3.3,0,0,0-2.305,1.479,20.043,20.043,0,0,0-2.471,4,59.692,59.692,0,0,0-2.951,8.209l-1.716,5.687-1.047,5.276A65.193,65.193,0,0,0-1186.172-475.491Zm53.13,21.21a36.6,36.6,0,0,1-2.394,2.952,29.475,29.475,0,0,1-3.367,3.228,21.018,21.018,0,0,1-4.009,2.6,9.555,9.555,0,0,1-4.282,1.063,6.022,6.022,0,0,1-4.312-1.638,13.328,13.328,0,0,1-2.982-4.758,18.934,18.934,0,0,1-2.315,2.2,20.625,20.625,0,0,1-3,2.023,19.348,19.348,0,0,1-3.394,1.483,11.3,11.3,0,0,1-3.532.578,9.085,9.085,0,0,1-3.64-.766,9.479,9.479,0,0,1-3.134-2.2,10.761,10.761,0,0,1-2.18-3.5,12.537,12.537,0,0,1-.818-4.653,22.992,22.992,0,0,1,.822-5.973,38.172,38.172,0,0,1,2.545-6.633,36.087,36.087,0,0,1,3.7-6.168,27.213,27.213,0,0,1,4.327-4.538,21.123,21.123,0,0,1,4.954-3.084,13.07,13.07,0,0,1,5.306-1.144,2.44,2.44,0,0,1,1.41.354,3.537,3.537,0,0,1,.842.806q.333.452.646.885a1.827,1.827,0,0,0,.783.629,3.587,3.587,0,0,0,.959.255,8.341,8.341,0,0,0,1,.059q.431,0,.881-.02t.881-.02a4.852,4.852,0,0,1,1.1.118,1.834,1.834,0,0,1,.9.512,2.606,2.606,0,0,1,.6,1.1,6.91,6.91,0,0,1,.214,1.927,24.588,24.588,0,0,1-.389,4.129q-.389,2.268-.892,4.648l-1.145,5.426a25.629,25.629,0,0,0-.643,5.134,9.281,9.281,0,0,0,.331,2.789,1.36,1.36,0,0,0,1.421,1.006,4.154,4.154,0,0,0,1.713-.405,10.669,10.669,0,0,0,1.81-1.061,20.576,20.576,0,0,0,1.83-1.486q.915-.83,1.732-1.717a59.278,59.278,0,0,0,3.854-4.708Zm-33.395-3.049a13.6,13.6,0,0,0,.137,1.947,5.913,5.913,0,0,0,.487,1.686,3.3,3.3,0,0,0,.936,1.2,2.318,2.318,0,0,0,1.481.462,3.511,3.511,0,0,0,2.613-1.254,12.223,12.223,0,0,0,2.028-3.018,21.651,21.651,0,0,0,1.384-3.644,22.223,22.223,0,0,0,.682-3.135l2.9-12.654a6.665,6.665,0,0,0-3.114.791,11.611,11.611,0,0,0-2.861,2.141,19.189,19.189,0,0,0-2.472,3.087,28.448,28.448,0,0,0-2.219,4.283,27.377,27.377,0,0,0-1.538,4.476A16.083,16.083,0,0,0-1166.437-457.33Z"
          transform="translate(1389.377 519.469)"/>
    <path class="a"
          d="M5660.448-9608.241a44.531,44.531,0,0,1,2.723-8.418c1.952-4.447,2.479-5.685,5.808-9.279s5.853-4.171,10.3-5.255,11.37.121,16.216,3.741,4.826,10.37,2.06,14.979c-1.325,2.208-4.155,4.036-6.941,5.147a27.105,27.105,0,0,1-5.841,1.552s1.007-5.023,1.394-6.7,1.167-4.882,1.519-6.627-.955-3.062-3.061-3.38a6.141,6.141,0,0,0-5.128,1.1c-2.045,1.273-3.007,3.624-3.862,6.755s-.591,4.055-.943,9.272c0,0-2.49-.905-3.424-1.222s-2.013-1.12-2.715-1.387-1.065-.4-1.576-.17-.717.539-.957,1.234a9.856,9.856,0,0,0-.183,2.392,13.917,13.917,0,0,0,.183,1.86c.151.775.216.84.957,1.52a17.317,17.317,0,0,0,2.544,1.652l5.715,2.58s.088,1.845,0,4.806a61.37,61.37,0,0,1-.494,7.1,37.791,37.791,0,0,1-1.215,6.912c-.854,3.569-1.111,4.29-1.6,6.455-.33,1.475-.42,2.25-.076,3a2.759,2.759,0,0,0,.72.982,3.123,3.123,0,0,0,1.559.669,6.649,6.649,0,0,0,3.038-.209,4.481,4.481,0,0,0,2.544-1.614,11.132,11.132,0,0,0,1.842-3.113c1.728-4.159,2.734-9.456,2.932-16.038.258-5.97.282-8.953.282-8.953s14.171-.705,20.587-11.845,2.256-21.714-5.358-27.214-18.331-5.245-23.407-3.976-11.311,3.627-15.7,10.685-1.968,16.374-1.968,16.374Z"
          transform="translate(-5640.597 9640.682)"/>
    <g transform="translate(0 12.531)">
        <path class="a"
              d="M25.851,65.417A11.49,11.49,0,0,1,24,65.242a7.113,7.113,0,0,1-1.964-.645,9.9,9.9,0,0,1-2.01-1.33,13.717,13.717,0,0,1-1.955-2.052,18.814,18.814,0,0,1-1.8-2.811,18.77,18.77,0,0,0-3.68-3.921l0,0c-.34-.291-.725-.62-1.189-1.026a15.348,15.348,0,0,0-2.337-1.69c-.147-.09-.3-.184-.453-.282a14.029,14.029,0,0,1-1.575-1.135,14.169,14.169,0,0,1-1.8-1.83,18.2,18.2,0,0,1-1.9-3.082A22.047,22.047,0,0,1,1.952,42c0-.007-.251-.7-.549-1.845a34.01,34.01,0,0,1-.868-4.6c-.09-.778-.174-1.41-.248-1.967h0a22.974,22.974,0,0,1-.145-6.282,29.045,29.045,0,0,1,.605-4.519A39.013,39.013,0,0,1,2.23,18.341a20.137,20.137,0,0,1,1.442-3.034l0-.007.161-.29a20.327,20.327,0,0,1,1.451-2.254c.257-.365.577-.818.988-1.412C7.353,9.783,7.984,9,8.653,8.169l.019-.023c.686-.852,1.469-1.807,2.834-3.272A65.168,65.168,0,0,1,16.619,0c0,.016-.426,1.785-.645,3.486a34.263,34.263,0,0,0-.244,3.426,47,47,0,0,0,.536,6.2c.106.662.182,1.183.243,1.6a21.373,21.373,0,0,0,1.27,4.961,30.2,30.2,0,0,0,1.779,4.2,25.552,25.552,0,0,1,1.63,3.875,24.672,24.672,0,0,1,.936,4.051,14.3,14.3,0,0,1,.147,1.587c0,.006.064.565.095,1.381a20.543,20.543,0,0,1-.095,3.026,16.293,16.293,0,0,1-.673,2.979c-.255.8-.481,1.328-.483,1.334A28.37,28.37,0,0,0,19.6,46.137l-.037.13a17.847,17.847,0,0,0-.842,4.337,14.32,14.32,0,0,0,.2,4.527l.052.325a6.5,6.5,0,0,0,.888,2.271,7.281,7.281,0,0,0,.675.942,8.827,8.827,0,0,0,.679.8,7.721,7.721,0,0,0,1.7,1.387,7.608,7.608,0,0,0,3.053.949c.1.006.2.009.306.009a7.4,7.4,0,0,0,2.5-.491,6.4,6.4,0,0,0,1.871-1.121,3.036,3.036,0,0,0,.963,1.308,4.5,4.5,0,0,0,1.728.617l0,0c-.116.093-.541.428-1.154.842a16.415,16.415,0,0,1-2.653,1.479,16.7,16.7,0,0,1-1.869.707A6.253,6.253,0,0,1,25.851,65.417ZM3.458,37.678l.278,1.694.011.01c.3.284,1.828,1.728,2.355,2.239.443.429,1.605,1.329,2.454,1.985.282.218.525.406.715.556.767.6,2.741,1.741,2.761,1.753l.891,2.731A29.316,29.316,0,0,0,14.7,52.84a12.533,12.533,0,0,0,1.4,1.965l.209-1.785a8.164,8.164,0,0,1-.752-1.057,38.6,38.6,0,0,1-1.694-3.71l-.056-.143c-.354-.9-.438-1.119-.806-2.3-.1-.318-.188-.584-.266-.818a5.447,5.447,0,0,1-.376-1.607,22.113,22.113,0,0,1,1.65-4.4,31.793,31.793,0,0,1,2.244-3.981c.162-.252.315-.49.458-.722.906-1.352,2.077-2.92,2.089-2.936l-.073-1.5c-.019.025-2.173,2.952-2.907,4.046a50.133,50.133,0,0,0-2.571,4.484A34.924,34.924,0,0,0,11.886,42s0-.02-.012-.053c-.209-.979-.428-2.029-.616-2.956-.072-.356-.147-.713-.219-1.059-.206-.985-.419-2-.613-3.148-.194-1.2-.291-1.923-.385-2.619-.041-.3-.08-.592-.126-.916-.091-.638.68-2.327,1.431-3.7.129-.236.23-.424.319-.59a20.346,20.346,0,0,1,1.244-2.053c.97-1.468,2.352-3.283,2.366-3.3V20.282l-1.907,2.641-.825,1.142a33.023,33.023,0,0,0-1.737,2.853c-.1.177-.193.343-.279.492A13.305,13.305,0,0,0,9.621,29.6c0-.006,0-.091-.01-.234-.112-2.555-.182-4.221-.209-4.952a38.725,38.725,0,0,1,.278-4.338c.024-.212.043-.41.062-.6a21.234,21.234,0,0,1,.435-2.8,28.167,28.167,0,0,1,1.256-4.382c.744-2.144,1.743-4.273,1.753-4.294l-.453-1.5c-.011.025-1.207,2.793-2.089,5.361a36.382,36.382,0,0,0-1.388,4.616,36.475,36.475,0,0,0-.57,5.273l0,0c-.1-.143-.644-.914-1.311-2.041-.724-1.223-1.627-2.919-1.636-2.936l-.292.862A26.244,26.244,0,0,0,6.963,20.6c.828,1.353,1.642,2.487,1.651,2.5s-.033.509,0,1.957.07,2.036.2,3.768c.13,1.673.319,3,.321,3.009h0a25.161,25.161,0,0,1-2.612-2.161c-1.578-1.459-3.761-3.731-3.783-3.754v1.154c.015.016,1.506,1.677,3.126,3.17s3.4,2.849,3.418,2.863c0,.012.139,1.237.394,2.644.239,1.316.347,1.847.672,3.374.218,1.023.32,1.452.439,1.949h0c.063.264.129.537.218.927.255,1.112.7,2.7.7,2.717l-.005,0c-.128-.076-.8-.484-1.543-1.02-.017-.013-1.761-1.277-3.418-2.775S3.474,37.7,3.458,37.678Z"
              transform="translate(0 0)"/>
    </g>
</svg>