<svg xmlns="http://www.w3.org/2000/svg" xmlns:xlink="http://www.w3.org/1999/xlink" width="123.277" height="123.277"
     viewBox="0 0 123.277 123.277">
    <defs>
        <style>.a{clip-path:url(#a);}.b{fill:#3e721d;}.c{fill:#ffac33;}.d{fill:#732700;}</style>
        <clipPath id="a">
            <path d="M0-47.5H123.277V75.777H0Z" transform="translate(0 47.5)"/>
        </clipPath>
    </defs>
    <g transform="translate(0 47.5)">
        <g transform="translate(0 -47.5)">
            <g class="a">
                <g transform="translate(6.488 74.615)">
                    <path class="b"
                          d="M53.842,9.971c-25.953,0-25.953,19.465-25.953,19.465V-6.25H14.912V29.436s0-19.465-25.953-19.465A44.881,44.881,0,0,1-33.75,3.482s0,29.2,29.2,29.2H14.912s0,6.488,6.488,6.488,6.488-6.488,6.488-6.488H47.354c29.2,0,29.2-29.2,29.2-29.2A44.881,44.881,0,0,1,53.842,9.971"
                          transform="translate(33.75 6.25)"/>
                </g>
                <g transform="translate(16.51 3.53)">
                    <path class="c"
                          d="M33.972,54.986a5.379,5.379,0,0,1-3.007-.918l-7.536-5.11L15.9,54.068a5.407,5.407,0,0,1-3.014.918A5.227,5.227,0,0,1,11.49,54.8a5.352,5.352,0,0,1-3.439-2.835l-3.971-8.2L-5,44.43c-.127.006-.256.013-.383.013a5.373,5.373,0,0,1-3.8-1.57,5.386,5.386,0,0,1-1.564-4.178l.652-9.084-8.185-3.974a5.366,5.366,0,0,1-2.839-3.442,5.349,5.349,0,0,1,.74-4.4l5.1-7.536-5.1-7.533a5.362,5.362,0,0,1-.74-4.406,5.376,5.376,0,0,1,2.839-3.439l8.185-3.971-.652-9.077a5.351,5.351,0,0,1,1.564-4.178,5.343,5.343,0,0,1,3.8-1.573c.127,0,.256,0,.383.01l9.077.652,3.971-8.185a5.39,5.39,0,0,1,3.439-2.842,5.5,5.5,0,0,1,1.392-.185,5.4,5.4,0,0,1,3.014.925l7.533,5.106,7.536-5.106a5.36,5.36,0,0,1,3.007-.925,5.4,5.4,0,0,1,1.388.185,5.37,5.37,0,0,1,3.445,2.842l3.974,8.185,9.084-.652c.12-.01.253-.01.376-.01a5.392,5.392,0,0,1,3.8,1.573A5.369,5.369,0,0,1,57.6-18.166l-.662,9.077,8.2,3.971a5.352,5.352,0,0,1,2.835,3.439,5.383,5.383,0,0,1-.733,4.406l-5.11,7.533,5.11,7.536a5.383,5.383,0,0,1-2.1,7.841l-8.2,3.974.662,9.084a5.363,5.363,0,0,1-5.359,5.749c-.123,0-.256-.006-.376-.013l-9.084-.662-3.974,8.2A5.333,5.333,0,0,1,35.361,54.8a5.152,5.152,0,0,1-1.388.185"
                          transform="translate(21.295 34.467)"/>
                </g>
                <g transform="translate(38.93 25.953)">
                    <path class="d"
                          d="M27.918,13.959A22.709,22.709,0,1,0,5.209,36.668,22.711,22.711,0,0,0,27.918,13.959"
                          transform="translate(17.5 8.75)"/>
                </g>
            </g>
        </g>
    </g>
</svg>

